<?xml version="1.0" encoding="UTF-8" standalone="no"?>
<!-- Created with Inkscape (http://www.inkscape.org/) -->

<svg
   width="75.560654mm"
   height="19.45335mm"
   viewBox="0 0 75.560654 19.45335"
   version="1.1"
   id="svg1260"
   inkscape:version="1.2.2 (732a01da63, 2022-12-09)"
   sodipodi:docname="backbone_tracker_1.svg"
   inkscape:export-filename="backbone_tracker.pdf"
   inkscape:export-xdpi="96"
   inkscape:export-ydpi="96"
   xmlns:inkscape="http://www.inkscape.org/namespaces/inkscape"
   xmlns:sodipodi="http://sodipodi.sourceforge.net/DTD/sodipodi-0.dtd"
   xmlns="http://www.w3.org/2000/svg"
   xmlns:svg="http://www.w3.org/2000/svg">
  <sodipodi:namedview
     id="namedview1262"
     pagecolor="#ffffff"
     bordercolor="#000000"
     borderopacity="0.25"
     inkscape:showpageshadow="2"
     inkscape:pageopacity="0.0"
     inkscape:pagecheckerboard="0"
     inkscape:deskcolor="#d1d1d1"
     inkscape:document-units="mm"
     showgrid="false"
     inkscape:zoom="4"
     inkscape:cx="103.5"
     inkscape:cy="44.625"
     inkscape:window-width="1920"
     inkscape:window-height="991"
     inkscape:window-x="2391"
     inkscape:window-y="145"
     inkscape:window-maximized="1"
     inkscape:current-layer="text2206" />
  <defs
     id="defs1257">
    <marker
       style="overflow:visible"
       id="TriangleStart"
       refX="0"
       refY="0"
       orient="auto-start-reverse"
       inkscape:stockid="TriangleStart"
       markerWidth="3"
       markerHeight="3"
       viewBox="0 0 5.3244081 6.1553851"
       inkscape:isstock="true"
       inkscape:collect="always"
       preserveAspectRatio="xMidYMid">
      <path
         transform="scale(0.5)"
         style="fill:context-stroke;fill-rule:evenodd;stroke:context-stroke;stroke-width:1pt"
         d="M 5.77,0 -2.88,5 V -5 Z"
         id="path135" />
    </marker>
    <linearGradient
       id="linearGradient4448"
       inkscape:swatch="solid">
      <stop
         style="stop-color:#ff0000;stop-opacity:1;"
         offset="0"
         id="stop4446" />
    </linearGradient>
    <clipPath
       clipPathUnits="userSpaceOnUse"
       id="clipEmfPath1">
      <path
         d="M 0,0 H 227.31591 V 170.48693 H 0 Z"
         id="path309" />
    </clipPath>
    <pattern
       id="EMFhbasepattern"
       patternUnits="userSpaceOnUse"
       width="6"
       height="6"
       x="0"
       y="0" />
  </defs>
  <g
     inkscape:label="Ebene 1"
     inkscape:groupmode="layer"
     id="layer1"
     transform="translate(-42.20903,-14.349788)">
    <g
       id="g2150"
       transform="matrix(0.98908902,0,0,1.0000809,77.970647,1.3041019)"
       style="stroke-width:0.703822;stroke-dasharray:none">
      <path
         style="fill:#0000ff;stroke-width:0.703822;stroke-dasharray:none"
         d="M 17.395845,32.270554 36.934658,32.144496"
         id="path1435" />
      <path
         style="fill:none;stroke:#3e444c;stroke-width:0.703822;stroke-dasharray:none;stroke-opacity:1"
         d="m 27.80736,32.144496 c 0,-1.499561 -0.205452,-3.026292 -2.363567,-4.12836 -1.3147,-0.906815 -2.090492,-1.962876 -2.237509,-3.119909 -0.07238,-1.528872 0.577221,-2.672693 1.764796,-3.529592 1.644309,-1.169105 3.398067,-2.192277 5.294389,-3.025364 1.97489,-1.008455 7.837236,-3.972045 9.812126,-4.9805"
         id="path1437"
         sodipodi:nodetypes="cccccc" />
      <path
         id="path2006-3"
         style="fill:none;stroke:#3e444c;stroke-width:0.722736;stroke-dasharray:none;stroke-opacity:1"
         d="m 27.80736,32.144496 12.430714,-2e-6 m -24.861427,4e-6 12.430713,-2e-6" />
    </g>
    <g
       id="g2145"
       transform="matrix(1.1484449,0,0,1.1484449,61.281496,-7.7953352)"
       style="stroke:#00beff;stroke-width:0.261223;stroke-dasharray:none;stroke-opacity:1">
      <path
         style="fill:none;stroke:#3e444c;stroke-width:0.435371;stroke-dasharray:none;stroke-opacity:1;marker-start:url(#TriangleStart)"
         d="m 38.293952,20.069403 1e-6,10"
         id="path2118"
         sodipodi:nodetypes="cc" />
      <path
         style="fill:none;stroke:#3e444c;stroke-width:0.435371;stroke-dasharray:none;stroke-opacity:1;marker-end:url(#TriangleStart)"
         d="m 33.293952,25.069404 10,-10e-7"
         id="path2118-4"
         sodipodi:nodetypes="cc" />
    </g>
    <g
       aria-label="backbone
tracker"
       id="text2206"
       style="font-style:italic;font-size:11.2889px;line-height:0.9;font-family:Corbel;-inkscape-font-specification:'Corbel Italic';text-align:end;text-anchor:end;fill:#60c79a;stroke:#ff0000;stroke-width:0.401669">
      <path
         d="m 43.880901,15.06749 v 3.127025 q 0.259645,-0.349956 0.654756,-0.553156 0.395112,-0.214489 0.970846,-0.214489 1.117601,0 1.794935,0.846668 0.677334,0.846667 0.677334,2.167469 0,1.309512 -0.643468,2.099735 -0.632178,0.778934 -1.749779,0.778934 -0.609601,0 -1.02729,-0.237067 -0.417689,-0.237067 -0.677334,-0.666045 0,0.316089 -0.05645,0.790223 H 42.210144 V 15.06749 Z m 1.241779,7.157163 q 0.564445,0 0.857956,-0.451556 0.293512,-0.451556 0.293512,-1.286935 0,-1.941691 -1.241779,-1.941691 -0.564445,0 -0.891823,0.41769 -0.327379,0.417689 -0.327379,1.354668 0,0.903112 0.338667,1.411112 0.349956,0.496712 0.970846,0.496712 z"
         style="font-style:normal;font-weight:bold;font-family:'Univers for UniS 65 Bold';-inkscape-font-specification:'Univers for UniS 65 Bold,  Bold';fill:#3e444c;stroke:none"
         id="path312" />
      <path
         d="m 53.961889,19.413717 v 2.088446 q 0,1.049868 0.135467,1.704624 h -1.512712 q -0.02258,-0.112889 -0.05644,-0.778934 -0.293511,0.428978 -0.699912,0.677334 -0.4064,0.237067 -1.016001,0.237067 -1.004712,0 -1.456268,-0.496712 -0.451556,-0.508 -0.451556,-1.151468 0,-0.993423 0.756356,-1.569157 0.767646,-0.575734 2.427114,-0.575734 h 0.282222 v -0.225778 q 0,-1.004712 -0.835378,-1.004712 -0.327378,0 -0.541867,0.214489 -0.203201,0.203201 -0.203201,0.609601 h -1.63689 q 0.02258,-0.891823 0.643467,-1.343379 0.632179,-0.462845 1.715913,-0.462845 1.061157,0 1.74978,0.474134 0.699911,0.462845 0.699911,1.603024 z m -2.619024,2.844802 q 0.474133,0 0.745067,-0.383822 0.282222,-0.395112 0.282222,-1.061157 v -0.293511 l -0.293511,-0.01129 q -0.778934,0 -1.162757,0.259645 -0.383822,0.259644 -0.383822,0.677334 0,0.349956 0.225778,0.587022 0.225778,0.225778 0.587023,0.225778 z"
         style="font-style:normal;font-weight:bold;font-family:'Univers for UniS 65 Bold';-inkscape-font-specification:'Univers for UniS 65 Bold,  Bold';fill:#3e444c;stroke:none"
         id="path314" />
      <path
         d="m 60.09176,19.526606 h -1.636891 q -0.02258,-0.395112 -0.2032,-0.72249 -0.169333,-0.327378 -0.530578,-0.327378 -0.440267,0 -0.666045,0.485423 -0.214489,0.474133 -0.214489,1.33209 0,0.914401 0.225778,1.43369 0.225778,0.508001 0.632178,0.508001 0.338667,0 0.541867,-0.293512 0.214489,-0.3048 0.237067,-0.801512 h 1.64818 q -0.02258,1.061157 -0.666046,1.636891 -0.643467,0.575734 -1.715912,0.575734 -1.34338,0 -1.998136,-0.846668 -0.643467,-0.846667 -0.643467,-2.15618 0,-1.501423 0.778934,-2.223913 0.790223,-0.733779 1.885246,-0.733779 1.004712,0 1.659469,0.587023 0.666045,0.587023 0.666045,1.54658 z"
         style="font-style:normal;font-weight:bold;font-family:'Univers for UniS 65 Bold';-inkscape-font-specification:'Univers for UniS 65 Bold,  Bold';fill:#3e444c;stroke:none"
         id="path316" />
      <path
         d="m 62.541446,15.044912 v 4.809072 l 1.727202,-2.381958 h 1.885246 l -1.95298,2.483558 2.077158,3.251203 H 64.302514 L 62.541446,20.10234 v 3.104447 h -1.659468 v -8.161875 z"
         style="font-style:normal;font-weight:bold;font-family:'Univers for UniS 65 Bold';-inkscape-font-specification:'Univers for UniS 65 Bold,  Bold';fill:#3e444c;stroke:none"
         id="path318" />
      <path
         d="m 68.750337,15.06749 v 3.127025 q 0.259645,-0.349956 0.654756,-0.553156 0.395112,-0.214489 0.970846,-0.214489 1.117601,0 1.794935,0.846668 0.677334,0.846667 0.677334,2.167469 0,1.309512 -0.643467,2.099735 -0.632179,0.778934 -1.74978,0.778934 -0.609601,0 -1.02729,-0.237067 -0.417689,-0.237067 -0.677334,-0.666045 0,0.316089 -0.05644,0.790223 H 67.07958 V 15.06749 Z m 1.241779,7.157163 q 0.564445,0 0.857957,-0.451556 0.293511,-0.451556 0.293511,-1.286935 0,-1.941691 -1.241779,-1.941691 -0.564445,0 -0.891823,0.41769 -0.327378,0.417689 -0.327378,1.354668 0,0.903112 0.338667,1.411112 0.349956,0.496712 0.970845,0.496712 z"
         style="font-style:normal;font-weight:bold;font-family:'Univers for UniS 65 Bold';-inkscape-font-specification:'Univers for UniS 65 Bold,  Bold';fill:#3e444c;stroke:none"
         id="path320" />
      <path
         d="m 76.686436,23.409987 q -1.354668,0 -2.133602,-0.824089 Q 73.7739,21.750519 73.7739,20.40714 q 0,-1.399824 0.790223,-2.212625 0.801512,-0.824089 2.15618,-0.824089 1.377246,0 2.167469,0.8128 0.790223,0.812801 0.790223,2.178758 0,1.388535 -0.812801,2.223914 -0.801512,0.824089 -2.178758,0.824089 z m 1.286935,-3.104447 q 0,-1.817513 -1.253068,-1.817513 -0.598312,0 -0.914401,0.451556 -0.316089,0.451556 -0.316089,1.478846 0,0.959556 0.3048,1.399823 0.316089,0.428979 0.948268,0.428979 0.643467,0 0.936978,-0.474134 0.293512,-0.474134 0.293512,-1.467557 z"
         style="font-style:normal;font-weight:bold;font-family:'Univers for UniS 65 Bold';-inkscape-font-specification:'Univers for UniS 65 Bold,  Bold';fill:#3e444c;stroke:none"
         id="path322" />
      <path
         d="m 86.315868,23.206787 h -1.704624 v -3.680181 q 0,-0.474134 -0.248356,-0.72249 -0.248355,-0.248356 -0.643467,-0.248356 -0.474134,0 -0.778934,0.3048 -0.3048,0.304801 -0.3048,0.959557 v 3.38667 H 80.95364 v -5.226761 q 0,-0.225778 -0.03387,-0.496711 h 1.603024 l 0.04516,0.857956 q 0.293512,-0.508 0.767645,-0.745067 0.474134,-0.248356 1.083735,-0.248356 0.767645,0 1.33209,0.462845 0.564445,0.462845 0.564445,1.806224 z"
         style="font-style:normal;font-weight:bold;font-family:'Univers for UniS 65 Bold';-inkscape-font-specification:'Univers for UniS 65 Bold,  Bold';fill:#3e444c;stroke:none"
         id="path324" />
      <path
         d="m 90.357294,17.313981 q 1.241779,0 1.941691,0.835379 0.711201,0.824089 0.711201,2.370669 0,0.158044 -0.01129,0.259645 H 89.17196 q 0,0.8128 0.293511,1.174045 0.304801,0.349956 0.869246,0.349956 0.440267,0 0.666045,-0.214489 0.225778,-0.214489 0.327378,-0.575734 h 1.524001 q -0.07902,0.92569 -0.733778,1.422402 -0.654756,0.485422 -1.794935,0.485422 -1.33209,0 -2.043291,-0.722489 -0.711201,-0.733779 -0.711201,-2.212625 0,-1.422401 0.711201,-2.269069 0.722489,-0.857956 2.077157,-0.903112 z m 0.936979,2.415825 q 0,-0.609601 -0.248356,-0.936979 -0.248355,-0.338667 -0.745067,-0.338667 -0.474134,0 -0.756356,0.327378 -0.282223,0.316089 -0.31609,0.948268 z"
         style="font-style:normal;font-weight:bold;font-family:'Univers for UniS 65 Bold';-inkscape-font-specification:'Univers for UniS 65 Bold,  Bold';fill:#3e444c;stroke:none"
         id="path326" />
      <path
         d="m 59.335414,27.921623 h 1.354668 v 1.106312 h -1.354668 v 2.585158 q 0,0.496712 0.146755,0.666045 0.146756,0.169334 0.62089,0.169334 0.169333,0.01129 0.553156,-0.03387 v 1.095023 q -0.4064,0.112889 -0.745067,0.146756 -0.338667,0.03387 -0.553156,0.03387 -0.835379,0 -1.264357,-0.349956 -0.41769,-0.349956 -0.41769,-1.140179 v -3.172181 h -1.095023 v -1.106312 h 1.095023 v -1.117602 l 1.659469,-0.6096 z"
         style="font-style:normal;font-weight:bold;font-family:'Univers for UniS 65 Bold';-inkscape-font-specification:'Univers for UniS 65 Bold,  Bold';fill:#00beff;stroke:none"
         id="path328" />
      <path
         d="m 65.160486,29.355313 q -0.191911,-0.02258 -0.428978,-0.02258 -0.643468,0 -1.004712,0.3048 -0.361245,0.304801 -0.361245,1.083735 v 2.867381 h -1.670758 v -4.538138 q -0.04515,-1.004713 -0.07902,-1.185335 h 1.569157 q 0.03387,0.259645 0.03387,1.083734 0.293511,-0.632178 0.711201,-0.857956 0.428978,-0.237067 1.049867,-0.237067 h 0.180623 z"
         style="font-style:normal;font-weight:bold;font-family:'Univers for UniS 65 Bold';-inkscape-font-specification:'Univers for UniS 65 Bold,  Bold';fill:#00beff;stroke:none"
         id="path330" />
      <path
         d="m 70.658174,29.79558 v 2.088447 q 0,1.049867 0.135467,1.704624 h -1.512712 q -0.02258,-0.112889 -0.05644,-0.778935 -0.293511,0.428979 -0.699912,0.677334 -0.4064,0.237067 -1.016001,0.237067 -1.004712,0 -1.456268,-0.496711 -0.451556,-0.508001 -0.451556,-1.151468 0,-0.993423 0.756356,-1.569157 0.767646,-0.575734 2.427114,-0.575734 h 0.282223 v -0.225778 q 0,-1.004712 -0.835379,-1.004712 -0.327378,0 -0.541867,0.214489 -0.203201,0.2032 -0.203201,0.6096 h -1.63689 q 0.02258,-0.891823 0.643467,-1.343379 0.632179,-0.462845 1.715913,-0.462845 1.061157,0 1.74978,0.474134 0.699911,0.462845 0.699911,1.603024 z m -2.619024,2.844803 q 0.474133,0 0.745067,-0.383823 0.282223,-0.395111 0.282223,-1.061156 v -0.293512 l -0.293512,-0.01129 q -0.778934,0 -1.162757,0.259645 -0.383822,0.259645 -0.383822,0.677334 0,0.349956 0.225778,0.587023 0.225778,0.225778 0.587023,0.225778 z"
         style="font-style:normal;font-weight:bold;font-family:'Univers for UniS 65 Bold';-inkscape-font-specification:'Univers for UniS 65 Bold,  Bold';fill:#00beff;stroke:none"
         id="path332" />
      <path
         d="m 76.788044,29.908469 h -1.63689 q -0.02258,-0.395112 -0.2032,-0.72249 -0.169334,-0.327378 -0.530579,-0.327378 -0.440267,0 -0.666045,0.485423 -0.214489,0.474134 -0.214489,1.33209 0,0.914401 0.225778,1.433691 0.225778,0.508 0.632179,0.508 0.338667,0 0.541867,-0.293511 0.214489,-0.304801 0.237067,-0.801512 h 1.648179 q -0.02258,1.061156 -0.666045,1.63689 -0.643467,0.575734 -1.715913,0.575734 -1.343379,0 -1.998135,-0.846667 -0.643468,-0.846668 -0.643468,-2.15618 0,-1.501424 0.778935,-2.223914 0.790223,-0.733778 1.885246,-0.733778 1.004712,0 1.659468,0.587023 0.666045,0.587022 0.666045,1.546579 z"
         style="font-style:normal;font-weight:bold;font-family:'Univers for UniS 65 Bold';-inkscape-font-specification:'Univers for UniS 65 Bold,  Bold';fill:#00beff;stroke:none"
         id="path334" />
      <path
         d="m 79.237731,25.426776 v 4.809071 l 1.727202,-2.381958 h 1.885247 l -1.95298,2.483558 2.077157,3.251204 H 80.9988 l -1.761069,-3.104448 v 3.104448 h -1.659468 v -8.161875 z"
         style="font-style:normal;font-weight:bold;font-family:'Univers for UniS 65 Bold';-inkscape-font-specification:'Univers for UniS 65 Bold,  Bold';fill:#00beff;stroke:none"
         id="path336" />
      <path
         d="m 85.965914,27.695845 q 1.241779,0 1.941691,0.835378 0.711201,0.82409 0.711201,2.370669 0,0.158045 -0.01129,0.259645 H 84.78058 q 0,0.812801 0.293511,1.174046 0.304801,0.349955 0.869246,0.349955 0.440267,0 0.666045,-0.214489 0.225778,-0.214489 0.327378,-0.575734 h 1.524001 q -0.07902,0.92569 -0.733778,1.422402 -0.654756,0.485423 -1.794935,0.485423 -1.332091,0 -2.043291,-0.72249 -0.711201,-0.733779 -0.711201,-2.212624 0,-1.422402 0.711201,-2.269069 0.722489,-0.857957 2.077157,-0.903112 z m 0.936979,2.415824 q 0,-0.6096 -0.248356,-0.936979 -0.248355,-0.338667 -0.745067,-0.338667 -0.474134,0 -0.756356,0.327379 -0.282223,0.316089 -0.31609,0.948267 z"
         style="font-style:normal;font-weight:bold;font-family:'Univers for UniS 65 Bold';-inkscape-font-specification:'Univers for UniS 65 Bold,  Bold';fill:#00beff;stroke:none"
         id="path338" />
      <path
         d="m 93.17952,29.355313 q -0.191912,-0.02258 -0.428978,-0.02258 -0.643468,0 -1.004713,0.3048 -0.361244,0.304801 -0.361244,1.083735 v 2.867381 h -1.670758 v -4.538138 q -0.04515,-1.004713 -0.07902,-1.185335 h 1.569157 q 0.03387,0.259645 0.03387,1.083734 0.293511,-0.632178 0.711201,-0.857956 0.428978,-0.237067 1.049867,-0.237067 h 0.180623 z"
         style="font-style:normal;font-weight:bold;font-family:'Univers for UniS 65 Bold';-inkscape-font-specification:'Univers for UniS 65 Bold,  Bold';fill:#00beff;stroke:none"
         id="path340" />
    </g>
  </g>
  <g
     inkscape:groupmode="layer"
     id="layer3"
     inkscape:label="Ebene 2"
     transform="translate(-9.4393827,-0.27341801)">
    <circle
       style="fill:none;stroke:#00beff;stroke-width:0.7;stroke-dasharray:none;stroke-opacity:1"
       id="path2116"
       cx="72.490341"
       cy="6.9191227"
       r="3.4453347" />
  </g>
</svg>
